# xmcd
# Track frame offsets:
# 150
# 11589
# 30226
# 46289
# 61192
# 72949
# 85637
# 104707
# 118325
# 135263
# 148730
# 161221
# 178744
# 192233
# 209612
# 229129
# 251070
# 268333
#
# Disc length: 3771 seconds
# Revision: 0
# Processed by: cddbd v1.4PL0 Copyright (c) Steve Scherf et al.
# Submitted via: VisiTrax 2.9.5.180 - For more info visit www.synapsa.com
#
DISCID=0b0eb912
DTITLE=Various Artist - Country Complete  Volume 2 Disc 4
DYEAR=2001
DGENRE=
TTITLE0=Eddie Rabbitt - B-B-B-Burnin' Up With Love
TTITLE1=Juice Newton - Sweetest Thing I've Ever Known
TTITLE2=Willie Nelson - Always On My Mind
TTITLE3=Roseanne Cash - Seven Year Ache
TTITLE4=Slim Dusty - Duncan
TTITLE5=John Williamson - Home Among The Gum Trees
TTITLE6=Dan Seals - Addicted
TTITLE7=Dottie West - Lesson In Leavin'
TTITLE8=Gene Watson - Nothing Sure Looked Good On You
TTITLE9=Crystal Gayle - Dreaming My Dreams With You
TTITLE10=Sawyer Brown - Step That Step
TTITLE11=Marie Osmond and Dan Seals - Meet Me In Montana
TTITLE12=Graham Brown - I Tell It Like It Used To Be
TTITLE13=Ricky Scaggs - Country Boy
TTITLE14=Ronnie Milsap - Lost In The Fifties
TTITLE15=Dan Seals - Everything That Glitters Is Not Gold
TTITLE16=Don Williams - Heartbeat In The Darkness
TTITLE17=Tanya Tucker - Just Another Love
EXTD=EMI Australia
EXTT0=
EXTT1=
EXTT2=
EXTT3=
EXTT4=
EXTT5=
EXTT6=
EXTT7=
EXTT8=
EXTT9=
EXTT10=
EXTT11=
EXTT12=
EXTT13=
EXTT14=
EXTT15=
EXTT16=
EXTT17=
PLAYORDER=
